<svg width="54" height="60" viewBox="0 0 54 60" fill="none" xmlns="http://www.w3.org/2000/svg">
<path d="M53.3582 20.5371C53.1075 19.8207 52.5331 19.3091 51.8269 19.1365L46.2725 9.97805C47.0486 9.51867 47.5705 8.67316 47.5705 7.70777C47.5705 6.25395 46.3876 5.07105 44.9337 5.07105C43.7946 5.07105 42.822 5.79738 42.4543 6.81105C40.1177 6.70723 38.106 6.11766 35.9891 5.4948C33.5738 4.7843 31.0811 4.05351 27.8789 3.9375V1.75781H28.2562C28.7417 1.75781 29.1351 1.36441 29.1351 0.878906C29.1351 0.393398 28.7417 0 28.2562 0H25.7437C25.2582 0 24.8648 0.393398 24.8648 0.878906C24.8648 1.36441 25.2582 1.75781 25.7437 1.75781H26.1211V3.9375C22.9188 4.05351 20.4261 4.7843 18.011 5.4948C15.894 6.11754 13.8823 6.70723 11.5457 6.81105C11.178 5.79727 10.2054 5.07105 9.06629 5.07105C7.61246 5.07105 6.42957 6.25395 6.42957 7.70777C6.42957 8.67316 6.9514 9.51855 7.72754 9.97805L6.84418 11.4346C6.72335 11.6339 6.68663 11.8731 6.74207 12.0995C6.79751 12.3259 6.94058 12.521 7.13984 12.642C7.33918 12.7628 7.57833 12.7995 7.80474 12.7441C8.03115 12.6886 8.22627 12.5455 8.34723 12.3463L9.06629 11.1606L13.8645 19.0721H4.26805L6.50492 15.3839C6.62575 15.1846 6.66247 14.9454 6.60703 14.719C6.55159 14.4926 6.40851 14.2975 6.20926 14.1765C6.00991 14.0557 5.77077 14.019 5.54437 14.0745C5.31797 14.1299 5.12285 14.273 5.00187 14.4722L2.17297 19.1365C1.4668 19.3091 0.89246 19.8207 0.641679 20.5371C0.327382 21.435 0.605468 22.3992 1.35019 22.9932L1.35031 22.9934C2.51047 23.9188 3.89469 24.607 5.40992 25.0293C6.01543 34.513 7.58562 41.096 10.4864 46.3252C13.8058 52.3091 18.9433 56.6319 26.6544 59.9292C26.7636 59.9759 26.8812 59.9999 27 59.9999C27.1187 59.9999 27.2363 59.9759 27.3455 59.9292C28.7348 59.3352 30.058 58.6978 31.2785 58.035C31.4794 57.9217 31.6277 57.7339 31.6915 57.5122C31.7552 57.2905 31.7292 57.0526 31.6192 56.8499C31.5091 56.6471 31.3237 56.4958 31.103 56.4285C30.8824 56.3613 30.6441 56.3834 30.4396 56.4902C29.3683 57.0721 28.2128 57.6342 26.9998 58.1637C26.2599 57.841 25.5284 57.4992 24.8062 57.1385L30.1003 44.7259C30.6779 43.3683 31.6423 42.2106 32.8733 41.3974C34.1043 40.5841 35.5475 40.1512 37.0229 40.1525C38.6576 40.1525 40.0593 40.9472 41.1889 42.5146C41.8228 43.3941 42.1987 44.2905 42.3668 44.7477C40.2218 48.9102 37.2242 52.1696 33.1395 54.8727C32.9503 55.0035 32.82 55.2033 32.7764 55.4292C32.7328 55.6551 32.7795 55.889 32.9064 56.0809C33.0334 56.2727 33.2305 56.4072 33.4554 56.4554C33.6803 56.5036 33.9152 56.4617 34.1096 56.3387C37.6307 54.0085 40.3767 51.2828 42.5041 48.006C43.073 47.1295 43.597 46.2101 44.0807 45.2463C44.0963 45.2189 44.1107 45.1908 44.1233 45.1618C45.324 42.7507 46.267 40.054 46.9794 36.9954C47.0055 36.883 47.0093 36.7665 46.9905 36.6526C46.9717 36.5387 46.9306 36.4297 46.8696 36.3317C46.8086 36.2337 46.7289 36.1487 46.6351 36.0814C46.5412 36.0142 46.4351 35.9662 46.3227 35.94C46.2102 35.9138 46.0938 35.91 45.9799 35.9289C45.866 35.9477 45.757 35.9888 45.6589 36.0498C45.5609 36.1108 45.4759 36.1904 45.4087 36.2843C45.3415 36.3781 45.2934 36.4843 45.2673 36.5967C44.7549 38.7966 44.118 40.8056 43.3428 42.652C43.1344 42.2653 42.9025 41.8918 42.6484 41.5335C41.1864 39.4801 39.2412 38.3947 37.0229 38.3947C34.8192 38.3931 32.6869 39.1766 31.0086 40.6048C30.7735 39.5557 30.3483 38.5585 29.7541 37.6625C29.896 34.6828 32.4391 34.2869 32.7315 34.2516C32.8714 34.2365 33.0056 34.188 33.1228 34.1103C33.2401 34.0325 33.337 33.9277 33.4053 33.8048C33.4736 33.6818 33.5114 33.5442 33.5155 33.4035C33.5196 33.2629 33.4898 33.1233 33.4287 32.9966C32.4989 31.0657 32.7311 30.0923 33.1159 28.4794C33.3887 27.3353 33.7284 25.9114 33.7284 23.809V19.0956C33.7284 19.0891 33.7276 19.0829 33.7275 19.0765C33.7272 19.0554 33.7261 19.0344 33.7243 19.0134C33.7232 19.0024 33.7216 18.9918 33.7201 18.981C33.718 18.9639 33.7154 18.9468 33.7122 18.9299C33.7094 18.916 33.7063 18.9022 33.7027 18.8885C33.6994 18.8752 33.6963 18.8618 33.6924 18.8486C33.6878 18.8331 33.6827 18.8177 33.6772 18.8025C33.6732 18.7914 33.6694 18.7802 33.665 18.7692C33.6587 18.7537 33.6519 18.7383 33.6446 18.7232C33.6397 18.7127 33.6349 18.7023 33.6296 18.692C33.6222 18.6778 33.6143 18.6638 33.6061 18.65C33.5996 18.6391 33.5933 18.6282 33.5864 18.6176C33.5785 18.6054 33.5701 18.5937 33.5616 18.582C33.5532 18.5702 33.5448 18.5587 33.5359 18.5475C33.5279 18.5375 33.5196 18.528 33.5112 18.5184C33.5008 18.5063 33.49 18.4944 33.4789 18.4828C33.4709 18.4746 33.4625 18.4668 33.4542 18.4589C33.4419 18.4472 33.4296 18.4357 33.4166 18.4247C33.4078 18.4173 33.3986 18.4103 33.3895 18.4031C33.3766 18.3928 33.3633 18.3829 33.3498 18.3735C33.339 18.366 33.3277 18.3591 33.3165 18.352C33.3041 18.3442 33.2916 18.3363 33.2786 18.3291C33.2645 18.3211 33.2497 18.3139 33.235 18.3067C33.2244 18.3015 33.2138 18.296 33.2028 18.2912C33.1849 18.2835 33.1668 18.2764 33.1484 18.27C33.1412 18.2674 33.1344 18.264 33.127 18.2616C33.0854 18.2479 29.4092 16.9818 28.1956 13.3657C31.8291 14.6191 35.3572 16.1593 38.7466 17.9716L38.0316 19.1504C37.3489 19.3349 36.7958 19.8382 36.5512 20.5372C36.2369 21.4351 36.515 22.3992 37.2598 22.9934C39.3002 24.6211 42.0329 25.5175 44.9546 25.5175C45.582 25.5175 46.1997 25.4736 46.8048 25.3927C46.6065 28.3187 46.3201 30.8919 45.9317 33.2343C45.8964 33.463 45.9527 33.6964 46.0884 33.8839C46.2241 34.0714 46.4283 34.1978 46.6566 34.2356C46.885 34.2735 47.119 34.2198 47.308 34.0861C47.497 33.9525 47.6256 33.7497 47.666 33.5218C48.0849 30.9948 48.3875 28.2127 48.5902 25.0294C50.1052 24.607 51.4893 23.9189 52.6494 22.9936L52.6495 22.9935C53.3943 22.3992 53.6724 21.435 53.3582 20.5371ZM44.9336 11.1605L49.7319 19.072H40.1354L44.9336 11.1605ZM44.9336 6.82887C45.4183 6.82887 45.8125 7.22309 45.8125 7.70777C45.8125 8.19246 45.4183 8.58668 44.9336 8.58668C44.4489 8.58668 44.0547 8.19246 44.0547 7.70777C44.0547 7.22309 44.4489 6.82887 44.9336 6.82887ZM18.507 7.18113C20.7971 6.50742 23.1603 5.81484 26.1211 5.69707V11.4029C22.0556 12.7484 18.114 14.4425 14.3403 16.4666L10.405 9.97805C10.9432 9.65952 11.3514 9.16089 11.5573 8.57039C14.1267 8.46762 16.2607 7.84195 18.507 7.18113ZM9.06629 6.82887C9.55098 6.82887 9.94519 7.22309 9.94519 7.70777C9.94519 8.19246 9.55098 8.58668 9.06629 8.58668C8.5816 8.58668 8.18738 8.19246 8.18738 7.70777C8.18738 7.22309 8.5816 6.82887 9.06629 6.82887ZM2.30082 21.1178C2.33844 21.0103 2.44121 20.8298 2.70699 20.8298H15.3832C15.6489 20.8298 15.7518 21.0103 15.7895 21.1179C15.8211 21.2084 15.8702 21.4384 15.6438 21.6191C12.067 24.4726 6.02351 24.4724 2.44648 21.6191L2.4466 21.6192C2.21996 21.4384 2.26918 21.2085 2.30082 21.1178ZM7.19469 25.3925C7.80802 25.4752 8.42619 25.517 9.04508 25.5175C11.9668 25.5175 14.6995 24.6211 16.7398 22.9934C17.4846 22.3992 17.7628 21.4351 17.4485 20.5372C17.2038 19.8382 16.6508 19.335 15.968 19.1504L15.2531 17.9715C16.8571 17.1135 18.4929 16.3163 20.157 15.5817C20.0997 16.7234 20.1965 17.9113 20.4468 19.1272C20.6679 20.2007 20.6868 20.8964 20.5125 21.5283C20.3157 22.2409 19.8611 22.7367 19.38 23.2618C18.8211 23.8717 18.1876 24.563 18.1876 25.5587C18.1876 26.7397 19.124 28.026 20.875 28.3574C21.4111 30.6438 21.932 32.3531 22.4969 33.6671C22.4379 33.666 22.3791 33.6628 22.3198 33.6628C20.9727 33.6628 19.678 33.9562 18.4716 34.5347C18.2615 34.6355 18.1 34.8157 18.0226 35.0356C17.9453 35.2556 17.9585 35.4972 18.0593 35.7074C18.1601 35.9175 18.3403 36.079 18.5602 36.1563C18.7801 36.2336 19.0216 36.2205 19.2318 36.1198C20.199 35.6558 21.2379 35.4206 22.3198 35.4206C26.1486 35.4206 29.3139 38.4862 29.4622 42.2906C29.0742 42.8356 28.7461 43.4209 28.4837 44.0362L27.77 45.7096C27.6144 45.7149 27.4607 45.6733 27.329 45.5901C27.1974 45.5069 27.0939 45.3859 27.032 45.243C26.9364 45.0326 26.7617 44.8683 26.5459 44.7856C26.33 44.703 26.0903 44.7087 25.8786 44.8015C25.6669 44.8944 25.5003 45.0668 25.4149 45.2816C25.3294 45.4963 25.332 45.7361 25.422 45.949C25.5719 46.2934 25.7967 46.6001 26.08 46.8467C26.3633 47.0934 26.698 47.2738 27.0597 47.3749L25.6453 50.6913C24.1018 51.6996 21.9455 51.2821 20.4041 50.5487V50.5479C20.3913 49.0148 19.6175 47.6672 18.2811 46.8502L15.5096 45.156C14.8504 44.7531 14.5565 44.2732 14.5565 43.6C14.5565 43.0782 14.891 42.6375 15.2867 42.6375C15.5193 42.6375 15.6848 42.7871 15.7627 42.8763C15.9161 43.0518 16.133 43.1592 16.3655 43.1749C16.5981 43.1905 16.8274 43.1132 17.0029 42.9598C17.1785 42.8064 17.2859 42.5895 17.3015 42.3569C17.3171 42.1244 17.2398 41.8951 17.0864 41.7196C16.6389 41.2077 16.0173 40.9059 15.3698 40.882C15.6468 39.729 16.2066 38.6686 17.0207 37.7705C17.1773 37.5978 17.2588 37.3699 17.2474 37.1371C17.236 36.9043 17.1325 36.6855 16.9598 36.529C16.7871 36.3724 16.5593 36.2909 16.3264 36.3023C16.0936 36.3138 15.8749 36.4172 15.7183 36.5899C14.4237 38.018 13.6215 39.8531 13.4495 41.7676C13.0454 42.2514 12.7986 42.8947 12.7986 43.6C12.7986 43.9513 12.8469 44.2849 12.9387 44.6C12.5223 44.6488 12.1159 44.7621 11.7343 44.9359C9.19625 40.1152 7.78168 34.0249 7.19469 25.3925ZM12.6064 46.4714C13.2492 46.2233 13.9778 46.2803 14.5917 46.6554L14.5924 46.6559L14.5931 46.6562L17.364 48.35C18.4691 49.0255 18.6416 50.0262 18.646 50.5625C18.6525 51.3343 18.3424 52.0684 17.8145 52.5776C15.7268 50.7789 14.0076 48.7588 12.6064 46.4714ZM19.1858 53.6866C19.5564 53.2905 19.8519 52.826 20.0593 52.3204C21.0075 52.7209 22.0077 52.9703 22.9476 53.0337C23.1124 53.0448 23.2753 53.0503 23.4364 53.0503C23.8701 53.0503 24.2891 53.0093 24.6902 52.9301L23.2449 56.3186C21.7703 55.5008 20.4211 54.6254 19.1858 53.6866ZM31.9706 19.6887V23.809C31.9706 25.7047 31.6706 26.962 31.4061 28.0714C31.0543 29.5464 30.7439 30.8481 31.4293 32.7716C30.2438 33.2025 28.8772 34.1657 28.2868 35.9578C27.2197 34.9929 25.9557 34.3134 24.59 33.9557C24.211 33.2727 23.849 32.3967 23.492 31.29C24.6942 31.0634 26.0152 30.4773 26.8116 29.3634C26.9454 29.1738 26.9987 28.9389 26.9599 28.7101C26.9211 28.4812 26.7934 28.277 26.6046 28.142C26.4158 28.007 26.1813 27.9522 25.9522 27.9895C25.7231 28.0267 25.5181 28.1531 25.3818 28.341C24.8782 29.0453 23.891 29.4534 22.995 29.5915C22.814 28.9145 22.6328 28.1734 22.4498 27.3626C22.4073 27.1741 22.3039 27.0049 22.1555 26.8812C22.0072 26.7574 21.8222 26.686 21.6291 26.678C20.8194 26.6442 19.9454 26.2066 19.9454 25.5586C19.9454 25.2616 20.223 24.9437 20.6758 24.4495C21.2202 23.8556 21.8975 23.1165 22.2068 21.9959C22.4271 21.1973 22.445 20.3566 22.2581 19.2502C23.1032 18.5248 24.2633 18.1731 25.5532 18.258C25.7843 18.2707 26.0111 18.1916 26.1843 18.038C26.3575 17.8845 26.4631 17.6688 26.4782 17.4378C26.4934 17.2068 26.4168 16.9792 26.2651 16.8044C26.1134 16.6295 25.8989 16.5215 25.6681 16.5039C24.2946 16.4143 23.0164 16.7016 21.9523 17.3212C21.8715 16.4514 21.8851 15.6081 21.9939 14.8008C23.4171 14.2184 24.8583 13.6813 26.3156 13.1905C27.2768 17.2069 30.5922 19.0728 31.9706 19.6887ZM27.8789 11.4029V5.69707C30.8395 5.81484 33.2027 6.50754 35.4929 7.18113C37.7393 7.84195 39.8732 8.46762 42.4426 8.57027C42.6485 9.16078 43.0567 9.6594 43.5949 9.97793L39.6596 16.4665C35.8859 14.4424 31.9443 12.7482 27.8789 11.4029ZM51.5533 21.6192C47.9765 24.4726 41.933 24.4725 38.3561 21.6191C38.1296 21.4384 38.1788 21.2084 38.2105 21.1179C38.2481 21.0103 38.351 20.8298 38.6168 20.8298H51.2929C51.5587 20.8298 51.6615 21.0103 51.6991 21.1178C51.7307 21.2085 51.78 21.4384 51.5533 21.6192Z" fill="black"/>
</svg>
