<svg width="58" height="58" viewBox="0 0 58 58" fill="none" xmlns="http://www.w3.org/2000/svg">
<path d="M57.1504 56.3008H37.7757V48.2536C38.2725 48.3931 38.7862 48.4639 39.3022 48.464H52.328C55.4555 48.464 57.9999 45.9196 57.9999 42.792C57.9999 42.5667 57.9104 42.3506 57.751 42.1912C57.5917 42.0319 57.3756 41.9424 57.1503 41.9424H54.8063L48.1323 29.5774C48.807 28.9536 49.2304 28.062 49.2304 27.0732C49.2304 25.4844 48.1382 24.1457 46.6647 23.7673V10.0875H48.7743V10.5621C48.7743 11.6606 50.4735 11.6606 50.4735 10.5621V10.0875H54.6648C57.5896 10.0875 57.5939 5.5305 54.6648 5.5305H50.4735V4.67625C50.4735 3.57776 48.7743 3.57776 48.7743 4.67625V5.53062H46.6647V4.67625C46.6647 3.57776 44.9655 3.57776 44.9655 4.67625V5.53062H37.9466V3.74768C37.9466 2.07679 36.5872 0.71741 34.9163 0.71741C34.2499 0.716849 33.6021 0.93719 33.0742 1.34397C32.5297 0.534121 31.6047 0 30.5571 0C29.5094 0 28.5844 0.534121 28.0399 1.34408C27.512 0.937303 26.8642 0.716962 26.1978 0.717523C25.0586 0.717523 24.0646 1.34963 23.5471 2.28126C23.0443 1.93592 22.4485 1.75137 21.8385 1.75201C20.1676 1.75201 18.8082 3.11138 18.8082 4.78228V5.5305H13.0345V4.67625C13.0345 3.57776 11.3353 3.57776 11.3353 4.67625V5.53062H9.22574V4.67625C9.22574 3.57776 7.52652 3.57776 7.52652 4.67625V5.53062H3.33523C0.410418 5.53062 0.406113 10.0876 3.33523 10.0876H7.52652V10.5622C7.52652 11.6607 9.22574 11.6607 9.22574 10.5622V10.0876H11.3353V23.7673C9.8617 24.1457 8.76956 25.4843 8.76956 27.0732C8.76956 28.062 9.193 28.9536 9.86782 29.5775L3.19362 41.9424H0.849609C0.624279 41.9424 0.408177 42.0319 0.248845 42.1912C0.0895122 42.3506 0 42.5667 0 42.792C0 45.9195 2.54441 48.4639 5.67188 48.4639H18.6976C19.2265 48.4639 19.7381 48.3896 20.2242 48.2535V56.3008H0.849609C0.624279 56.3008 0.408177 56.3903 0.248845 56.5496C0.0895122 56.709 0 56.9251 0 57.1504C0 57.3757 0.0895122 57.5918 0.248845 57.7512C0.408177 57.9105 0.624279 58 0.849609 58H57.1504C57.3757 58 57.5918 57.9105 57.7512 57.7512C57.9105 57.5918 58 57.3757 58 57.1504C58 56.9251 57.9105 56.709 57.7512 56.5496C57.5918 56.3903 57.3757 56.3008 57.1504 56.3008ZM52.8754 41.9424H51.167C50.9417 41.9424 50.7256 42.0319 50.5662 42.1912C50.4069 42.3506 50.3174 42.5667 50.3174 42.792C50.3174 43.0173 50.4069 43.2334 50.5662 43.3928C50.7256 43.5521 50.9417 43.6416 51.167 43.6416H54.2974L54.3002 43.6418L54.3033 43.6416H56.2092C55.8192 45.4254 54.2271 46.7647 52.328 46.7647H39.3022C37.4032 46.7647 35.811 45.4253 35.421 43.6415H37.3264L37.33 43.6417L37.3333 43.6415H46.6442V41.9423H38.7548L44.9927 30.3852C45.5409 30.5194 46.089 30.5194 46.6373 30.3852L52.8754 41.9424ZM21.9235 30.4959H36.0766V34.4144H21.9235V30.4959ZM47.5313 27.0731C47.5313 28.018 46.7615 28.7867 45.8152 28.7867C44.869 28.7867 44.099 28.018 44.099 27.0731C44.099 26.1282 44.8689 25.3595 45.8152 25.3595C46.7616 25.3595 47.5313 26.1282 47.5313 27.0731ZM44.9656 23.7672C43.4921 24.1456 42.3998 25.4842 42.3998 27.0731C42.3998 28.0619 42.8233 28.9534 43.4981 29.5774L37.7758 40.179V29.6463C37.7758 29.4209 37.6863 29.2048 37.5269 29.0455C37.3676 28.8862 37.1515 28.7967 36.9262 28.7967H36.1811C36.1081 27.1139 36.6489 25.4814 37.8533 24.2784C40.5455 21.5895 42.8048 18.8778 42.8048 14.8359V11.4123C42.8048 10.9374 42.6946 10.4879 42.4987 10.0876H44.9657V23.7672H44.9656ZM54.6648 7.22984C55.4136 7.22984 55.4136 8.38836 54.6648 8.38836H50.4735V7.22984H54.6648ZM48.7743 7.22984V8.38836H46.6647V7.22984H48.7743ZM44.9656 7.22984V8.38836L37.9467 8.38474V7.22984H44.9656ZM34.9163 2.41663C35.6503 2.41663 36.2474 3.01373 36.2474 3.74768V8.38462H33.5873V3.7052C33.6101 2.99096 34.1968 2.41663 34.9163 2.41663ZM30.5571 1.69922C31.291 1.69922 31.8881 2.29542 31.8881 3.02812L31.886 8.41918C31.1816 8.56893 30.6515 9.19493 30.6515 9.94281C30.651 10.7248 30.8558 11.4931 31.2455 12.1711C30.3738 12.6974 29.226 12.0518 29.226 11.0342V3.02812C29.226 2.29542 29.8231 1.69922 30.5571 1.69922ZM26.1978 2.41663C26.9174 2.41663 27.504 2.99096 27.5267 3.70509V10.4719C27.5039 11.1861 26.9173 11.7605 26.1978 11.7605C25.4638 11.7605 24.8667 11.1634 24.8667 10.4295V3.74768C24.8667 3.01373 25.4638 2.41663 26.1978 2.41663ZM20.5074 4.78228C20.5074 4.04833 21.1045 3.45123 21.8385 3.45123C22.5581 3.45123 23.1447 4.02556 23.1674 4.7398V9.43757C23.1446 10.1517 22.558 10.7261 21.8385 10.7261C21.1045 10.7261 20.5074 10.129 20.5074 9.39509V4.78228ZM18.8082 7.22984V8.38836H13.0345V7.22984H18.8082ZM3.33523 8.38825C2.58644 8.38825 2.58644 7.22972 3.33523 7.22972H7.52652V8.38825H3.33523ZM9.22574 8.38825V7.22984H11.3353V8.38836H9.22574V8.38825ZM18.8082 10.0875V14.0563C18.8082 14.2816 18.8977 14.4977 19.057 14.657C19.2164 14.8164 19.4325 14.9059 19.6578 14.9059C19.8831 14.9059 20.0992 14.8164 20.2586 14.657C20.4179 14.4977 20.5074 14.2816 20.5074 14.0563V12.1164C20.9216 12.32 21.377 12.4257 21.8385 12.4253C22.4485 12.4259 23.0443 12.2413 23.5471 11.896C24.0646 12.8276 25.0585 13.4597 26.1978 13.4597C26.9142 13.4597 27.5728 13.2094 28.0921 12.7922C28.6423 13.5602 29.5417 14.0622 30.5571 14.0622C31.2068 14.0623 31.8393 13.8534 32.3613 13.4665C33.1292 14.0751 34.099 14.4398 35.1531 14.4398H36.5126V14.4585C32.8052 14.881 29.916 18.0339 29.916 21.8483C29.916 22.0737 30.0055 22.2898 30.1648 22.4491C30.3242 22.6084 30.5403 22.6979 30.7656 22.6979C30.9909 22.6979 31.207 22.6084 31.3664 22.4491C31.5257 22.2898 31.6152 22.0737 31.6152 21.8483C31.6152 18.6839 34.1933 16.1096 37.3622 16.1096C37.5875 16.1096 37.8036 16.0201 37.963 15.8608C38.1223 15.7014 38.2118 15.4853 38.2118 15.26V13.5902C38.2118 13.3649 38.1223 13.1488 37.963 12.9895C37.8036 12.8301 37.5875 12.7406 37.3622 12.7406H35.1531C33.6552 12.7406 32.4281 11.5614 32.3543 10.0838C34.8514 10.0838 37.3484 10.0875 39.8454 10.0875C40.5463 10.1247 41.1055 10.7037 41.1055 11.4122V14.8358C41.1055 18.4152 39.0145 20.7166 36.6524 23.0761C35.1111 24.6153 34.4614 26.6563 34.4818 28.7967H23.4513C23.5138 26.9026 22.8809 25.1455 21.841 23.5798C20.9695 22.2257 20.5064 20.6492 20.5073 19.0388C20.5073 18.8135 20.4178 18.5974 20.2585 18.4381C20.0991 18.2787 19.883 18.1892 19.6577 18.1892C19.4324 18.1892 19.2163 18.2787 19.0569 18.4381C18.8976 18.5974 18.8081 18.8135 18.8081 19.0388C18.807 20.9774 19.3651 22.8751 20.4153 24.5044C21.2604 25.8123 21.8167 27.2191 21.752 28.7967H21.0738C20.8485 28.7967 20.6324 28.8862 20.4731 29.0455C20.3137 29.2048 20.2242 29.4209 20.2242 29.6463V40.179L14.5019 29.5774C15.1767 28.9536 15.6002 28.0619 15.6002 27.0731C15.6002 25.4843 14.5079 24.1456 13.0344 23.7672V10.0875H18.8082ZM12.1849 25.3595C13.1312 25.3595 13.9011 26.1282 13.9011 27.0731C13.9011 28.018 13.1312 28.7867 12.1849 28.7867C11.2385 28.7867 10.4688 28.018 10.4688 27.0731C10.4688 26.1282 11.2385 25.3595 12.1849 25.3595ZM11.3626 30.3853C11.9025 30.5194 12.4671 30.5194 13.0071 30.3853L19.2451 41.9425H5.12462L11.3626 30.3853ZM5.67188 46.7648C3.77283 46.7648 2.18066 45.4254 1.79064 43.6417H3.69693L3.69965 43.6418L3.70214 43.6417H20.6674L20.6699 43.6418L20.6726 43.6417H22.5789C22.1889 45.4256 20.5967 46.7648 18.6976 46.7648H5.67188ZM21.9235 56.3008V47.4535C23.4002 46.4285 24.3696 44.7217 24.3696 42.792C24.3696 42.5667 24.2801 42.3506 24.1208 42.1912C23.9615 42.0319 23.7453 41.9424 23.52 41.9424H21.9235V36.1135H36.0766V41.9424H34.4801C34.2548 41.9424 34.0387 42.0319 33.8793 42.1912C33.72 42.3506 33.6305 42.5667 33.6305 42.792C33.6305 44.7217 34.5999 46.4285 36.0766 47.4535V56.3008H21.9235Z" fill="black"/>
</svg>
